<svg width="190" height="29" viewBox="0 0 190 29" fill="none" xmlns="http://www.w3.org/2000/svg">
<path d="M174.247 27.4053V0.705322H177.285V18.7803H177.397L185.16 9.18032H188.572L182.46 16.4928L189.397 27.4053H186.022L180.697 18.6303L177.285 22.6053V27.4053H174.247Z" fill="white"/>
<path d="M163.03 27.8553C161.405 27.8553 159.93 27.4803 158.605 26.7303C157.28 25.9553 156.23 24.8553 155.455 23.4303C154.68 22.0053 154.293 20.3053 154.293 18.3303C154.293 16.3303 154.68 14.6178 155.455 13.1928C156.255 11.7678 157.28 10.6678 158.53 9.89285C159.78 9.11785 161.093 8.73035 162.468 8.73035C164.793 8.73035 166.58 9.50535 167.83 11.0553C169.105 12.6053 169.743 14.6803 169.743 17.2803C169.743 17.6053 169.73 17.9303 169.705 18.2553C169.705 18.5553 169.68 18.8178 169.63 19.0428H157.33C157.455 20.9678 158.055 22.5053 159.13 23.6553C160.23 24.8053 161.655 25.3803 163.405 25.3803C164.28 25.3803 165.08 25.2553 165.805 25.0053C166.555 24.7303 167.268 24.3803 167.943 23.9553L169.03 25.9803C168.255 26.4803 167.368 26.9178 166.368 27.2928C165.393 27.6678 164.28 27.8553 163.03 27.8553ZM157.293 16.8303H167.043C167.043 14.9803 166.643 13.5803 165.843 12.6303C165.068 11.6553 163.968 11.1678 162.543 11.1678C161.268 11.1678 160.118 11.6678 159.093 12.6678C158.093 13.6428 157.493 15.0303 157.293 16.8303Z" fill="white"/>
<path d="M149.222 27.8552C147.272 27.8552 145.91 27.2927 145.135 26.1677C144.385 25.0427 144.01 23.5802 144.01 21.7802V11.6927H141.31V9.3677L144.16 9.1802L144.535 4.0802H147.122V9.1802H152.035V11.6927H147.122V21.8177C147.122 22.9427 147.322 23.8177 147.722 24.4427C148.147 25.0427 148.885 25.3427 149.935 25.3427C150.26 25.3427 150.61 25.2927 150.985 25.1927C151.36 25.0677 151.697 24.9552 151.997 24.8552L152.597 27.1802C152.097 27.3552 151.547 27.5052 150.947 27.6302C150.372 27.7802 149.797 27.8552 149.222 27.8552Z" fill="white"/>
<path d="M115.649 27.4053V1.15527H139.306V8.09277H124.306V11.4365H138.743V17.124H124.306V20.4678H139.306V27.4053H115.649Z" fill="white"/>
<path d="M98.5713 28.2803C94.5921 28.2803 91.2692 26.9886 88.6025 24.4053C85.9359 21.8011 84.6025 18.4261 84.6025 14.2803C84.6025 10.0719 85.9671 6.68652 88.6963 4.12402C91.4255 1.56152 95.0609 0.280273 99.6025 0.280273C101.207 0.280273 102.748 0.47819 104.228 0.874023C105.707 1.26986 107.071 1.86361 108.321 2.65527C109.592 3.42611 110.655 4.47819 111.509 5.81152C112.384 7.12402 112.946 8.63444 113.196 10.3428H104.603C104.29 9.63444 103.696 9.03027 102.821 8.53027C101.946 8.00944 100.936 7.74902 99.79 7.74902C97.8109 7.74902 96.2171 8.34277 95.0088 9.53027C93.8005 10.7178 93.1963 12.3011 93.1963 14.2803C93.1963 16.2386 93.8005 17.8324 95.0088 19.0615C96.2171 20.2699 97.7588 20.874 99.6338 20.874C100.842 20.874 101.946 20.6136 102.946 20.0928C103.967 19.5719 104.634 18.6761 104.946 17.4053H99.1963V12.9053H113.321V27.4053H108.696L108.571 23.0303C107.696 24.5511 106.436 25.8115 104.79 26.8115C103.144 27.7907 101.071 28.2803 98.5713 28.2803Z" fill="white"/>
<path d="M68.7422 1.15527C71.3464 1.15527 73.5964 1.47819 75.4922 2.12402C77.388 2.76986 78.888 3.69694 79.9922 4.90527C81.0964 6.1136 81.8984 7.4886 82.3984 9.03027C82.9193 10.5719 83.1797 12.3219 83.1797 14.2803C83.1797 16.2386 82.9193 17.9886 82.3984 19.5303C81.8984 21.0719 81.0964 22.4469 79.9922 23.6553C78.888 24.8636 77.388 25.7907 75.4922 26.4365C73.5964 27.0823 71.3464 27.4053 68.7422 27.4053H55.5547V1.15527H68.7422ZM68.7422 20.1553C70.513 20.1553 71.9089 19.6761 72.9297 18.7178C73.9714 17.7594 74.4922 16.2803 74.4922 14.2803C74.4922 12.2594 73.9818 10.7803 72.9609 9.84277C71.9401 8.88444 70.5339 8.40527 68.7422 8.40527H64.2422V20.1553H68.7422Z" fill="white"/>
<path d="M29.6992 27.4053V1.15527H53.3555V8.09277H38.3555V11.4365H52.793V17.124H38.3555V20.4678H53.3555V27.4053H29.6992Z" fill="white"/>
<path d="M18.8438 1.15527H27.5V27.4053H18.8438V17.9053H8.65625V27.4053H0V1.15527H8.65625V10.6553H18.8438V1.15527Z" fill="white"/>
</svg>
