<svg width="271" height="40" viewBox="0 0 271 40" fill="none" xmlns="http://www.w3.org/2000/svg">
<path d="M248.925 38.7502V0.6073H253.264V26.4287H253.425L264.514 12.7144H269.389L260.657 23.1609L270.567 38.7502H265.746L258.139 26.2144L253.264 31.893V38.7502H248.925Z" fill="#808080"/>
<path d="M232.901 39.3927C230.579 39.3927 228.472 38.8569 226.579 37.7855C224.687 36.6784 223.187 35.1069 222.079 33.0712C220.972 31.0355 220.419 28.6069 220.419 25.7855C220.419 22.9284 220.972 20.4819 222.079 18.4462C223.222 16.4105 224.687 14.8391 226.472 13.7319C228.258 12.6248 230.133 12.0712 232.097 12.0712C235.419 12.0712 237.972 13.1784 239.758 15.3927C241.579 17.6069 242.49 20.5712 242.49 24.2855C242.49 24.7498 242.472 25.2141 242.437 25.6784C242.437 26.1069 242.401 26.4819 242.329 26.8034H224.758C224.937 29.5534 225.794 31.7498 227.329 33.3927C228.901 35.0355 230.937 35.8569 233.437 35.8569C234.687 35.8569 235.829 35.6784 236.865 35.3212C237.937 34.9284 238.954 34.4284 239.919 33.8212L241.472 36.7141C240.365 37.4284 239.097 38.0534 237.669 38.5891C236.276 39.1248 234.687 39.3927 232.901 39.3927ZM224.704 23.6427H238.633C238.633 20.9998 238.062 18.9998 236.919 17.6427C235.812 16.2498 234.24 15.5534 232.204 15.5534C230.383 15.5534 228.74 16.2677 227.276 17.6962C225.847 19.0891 224.99 21.0712 224.704 23.6427Z" fill="#808080"/>
<path d="M213.174 39.3925C210.389 39.3925 208.442 38.5889 207.335 36.9817C206.264 35.3746 205.728 33.2853 205.728 30.7139V16.3032H201.871V12.9817L205.942 12.7139L206.478 5.42816H210.174V12.7139H217.192V16.3032H210.174V30.7675C210.174 32.3746 210.46 33.6246 211.032 34.5175C211.639 35.3746 212.692 35.8032 214.192 35.8032C214.657 35.8032 215.157 35.7317 215.692 35.5889C216.228 35.4103 216.71 35.2496 217.139 35.1067L217.996 38.4282C217.282 38.6782 216.496 38.8925 215.639 39.071C214.817 39.2853 213.996 39.3925 213.174 39.3925Z" fill="#808080"/>
<path d="M165.214 38.75V1.25H199.008V11.1607H177.58V15.9375H198.205V24.0625H177.58V28.8393H199.008V38.75H165.214Z" fill="#383838"/>
<path d="M140.816 40C135.131 40 130.384 38.1548 126.575 34.4643C122.765 30.744 120.861 25.9226 120.861 20C120.861 13.9881 122.81 9.15178 126.709 5.49107C130.608 1.83036 135.801 0 142.289 0C144.581 0 146.783 0.282738 148.896 0.848214C151.009 1.41369 152.959 2.26191 154.745 3.39286C156.56 4.49405 158.078 5.99702 159.298 7.90179C160.548 9.77678 161.352 11.9345 161.709 14.375H149.432C148.986 13.3631 148.137 12.5 146.887 11.7857C145.637 11.0417 144.194 10.6696 142.557 10.6696C139.73 10.6696 137.453 11.5179 135.727 13.2143C134 14.9107 133.137 17.1726 133.137 20C133.137 22.7976 134 25.0744 135.727 26.8304C137.453 28.5565 139.655 29.4196 142.334 29.4196C144.06 29.4196 145.637 29.0476 147.066 28.3036C148.524 27.5595 149.477 26.2798 149.923 24.4643H141.709V18.0357H161.887V38.75H155.28L155.102 32.5C153.852 34.6726 152.051 36.4732 149.7 37.9018C147.349 39.3006 144.387 40 140.816 40Z" fill="#383838"/>
<path d="M98.2032 1.25C101.923 1.25 105.138 1.71131 107.846 2.63393C110.554 3.55655 112.697 4.88095 114.275 6.60714C115.852 8.33333 116.998 10.2976 117.712 12.5C118.456 14.7024 118.828 17.2024 118.828 20C118.828 22.7976 118.456 25.2976 117.712 27.5C116.998 29.7024 115.852 31.6667 114.275 33.3929C112.697 35.119 110.554 36.4434 107.846 37.3661C105.138 38.2887 101.923 38.75 98.2032 38.75H79.3639V1.25H98.2032ZM98.2032 28.3929C100.733 28.3929 102.727 27.7083 104.185 26.3393C105.673 24.9702 106.417 22.8571 106.417 20C106.417 17.1131 105.688 15 104.23 13.6607C102.772 12.2917 100.763 11.6071 98.2032 11.6071H91.7746V28.3929H98.2032Z" fill="#383838"/>
<path d="M42.8572 38.9285V1.42853H76.6518V11.3392H55.2232V16.116H75.8483V24.241H55.2232V29.0178H76.6518V38.9285H42.8572Z" fill="#383838"/>
<path d="M26.9196 1.25H39.2857V38.75H26.9196V25.1786H12.3661V38.75H0V1.25H12.3661V14.8214H26.9196V1.25Z" fill="#383838"/>
</svg>
